<svg width="23" height="24" viewBox="0 0 23 24" fill="none" xmlns="http://www.w3.org/2000/svg">
<g id="solar:database-linear">
<g id="Group">
<path id="Vector" d="M3.77264 17.6589V6.34106M18.8631 6.34106V17.6589" stroke="#121212" stroke-width="1.69767" stroke-linecap="round"/>
<path id="Vector_2" d="M18.8631 12C18.8631 14.0844 15.4847 15.7726 11.3179 15.7726C7.15102 15.7726 3.77264 14.0844 3.77264 12M18.8631 17.6589C18.8631 19.7433 15.4847 21.4315 11.3179 21.4315C7.15102 21.4315 3.77264 19.7433 3.77264 17.6589M11.3179 10.1137C15.4847 10.1137 18.8631 8.42546 18.8631 6.34109C18.8631 4.25672 15.4847 2.56848 11.3179 2.56848C7.15102 2.56848 3.77264 4.25672 3.77264 6.34109C3.77264 8.42546 7.15102 10.1137 11.3179 10.1137Z" stroke="#121212" stroke-width="1.69767"/>
</g>
</g>
</svg>
