<svg width="19" height="25" viewBox="0 0 19 25" fill="none" xmlns="http://www.w3.org/2000/svg">
<g id="Frame" clip-path="url(#clip0_40_5686)">
<path id="Vector" d="M14.4286 5.55556C14.4286 8.35862 12.2112 10.6111 9.50001 10.6111C6.78887 10.6111 4.57144 8.35862 4.57144 5.55556C4.57144 2.75249 6.78887 0.5 9.50001 0.5C12.2112 0.5 14.4286 2.75249 14.4286 5.55556Z" stroke="white"/>
<path id="Vector_2" d="M18.5 19.4444V20.8333C18.5 21.8095 18.121 22.7434 17.4499 23.4302C16.7792 24.1166 15.872 24.5 14.9286 24.5H4.07143C3.12801 24.5 2.22082 24.1166 1.55011 23.4302C0.879018 22.7434 0.5 21.8095 0.5 20.8333V19.4444C0.5 17.7316 1.16499 16.0911 2.34511 14.8834C3.52484 13.6761 5.12242 13 6.78571 13H12.2143C13.8776 13 15.4752 13.6761 16.6549 14.8834C17.835 16.0911 18.5 17.7316 18.5 19.4444Z" stroke="white"/>
</g>
<defs>
<clipPath id="clip0_40_5686">
<rect width="19" height="25" fill="white"/>
</clipPath>
</defs>
</svg>
