<svg width="19" height="19" viewBox="0 0 19 19" fill="none" xmlns="http://www.w3.org/2000/svg">
<g id="solar:rounded-magnifer-linear">
<g id="Group">
<path id="Vector" d="M8.55215 15.517C12.3229 15.517 15.3797 12.4602 15.3797 8.6894C15.3797 4.91863 12.3229 1.86182 8.55215 1.86182C4.78138 1.86182 1.72456 4.91863 1.72456 8.6894C1.72456 12.4602 4.78138 15.517 8.55215 15.517Z" stroke="#A8A8A8" stroke-width="1.13793"/>
<path id="Vector_2" d="M16.7541 16.2569C16.7063 16.3289 16.6206 16.4147 16.4484 16.5861C16.2769 16.7583 16.1904 16.844 16.1191 16.8918C16.0197 16.9577 15.9076 17.0021 15.79 17.0222C15.6724 17.0423 15.5519 17.0376 15.4363 17.0085C15.3206 16.9794 15.2123 16.9264 15.1182 16.853C15.0242 16.7796 14.9465 16.6874 14.8902 16.5823C14.8499 16.5064 14.8151 16.3896 14.746 16.1567C14.6694 15.9026 14.6315 15.7751 14.6239 15.6856C14.6138 15.5617 14.6308 15.4371 14.6736 15.3204C14.7165 15.2037 14.7842 15.0978 14.8721 15.0099C14.96 14.922 15.066 14.8542 15.1827 14.8114C15.2994 14.7685 15.424 14.7515 15.5479 14.7616C15.6374 14.7692 15.7641 14.8071 16.019 14.883C16.2519 14.9528 16.3679 14.9877 16.4438 15.0287C16.5489 15.085 16.6411 15.1626 16.7145 15.2565C16.7878 15.3505 16.8408 15.4587 16.87 15.5743C16.8992 15.6899 16.904 15.8103 16.884 15.9278C16.8641 16.0453 16.8198 16.1574 16.7541 16.2569Z" stroke="#A8A8A8" stroke-width="1.13793" stroke-linecap="round"/>
</g>
</g>
</svg>
