<svg width="22" height="23" viewBox="0 0 22 23" fill="none" xmlns="http://www.w3.org/2000/svg">
<path fill-rule="evenodd" clip-rule="evenodd" d="M8.18507 4.53872C7.01979 4.40848 5.81354 4.40848 4.64826 4.53872C4.36511 4.57036 4.14181 4.79457 4.10996 5.06687C3.97081 6.25665 3.97081 7.4586 4.10996 8.64838C4.14181 8.92068 4.36511 9.14489 4.64826 9.17653C5.81354 9.30677 7.01979 9.30677 8.18507 9.17653C8.46822 9.14489 8.69152 8.92068 8.72337 8.64838C8.86252 7.4586 8.86252 6.25665 8.72337 5.06687C8.69152 4.79457 8.46822 4.57036 8.18507 4.53872ZM4.49553 3.17223C5.76232 3.03064 7.07101 3.03064 8.3378 3.17223C9.24607 3.27374 9.98164 3.98873 10.0891 4.90714C10.2406 6.20305 10.2406 7.5122 10.0891 8.80811C9.98164 9.72652 9.24607 10.4415 8.3378 10.543C7.07101 10.6846 5.76232 10.6846 4.49553 10.543C3.58726 10.4415 2.85169 9.72652 2.74427 8.80811C2.5927 7.5122 2.5927 6.20305 2.74427 4.90714C2.85169 3.98873 3.58726 3.27374 4.49553 3.17223Z" fill="white"/>
<path fill-rule="evenodd" clip-rule="evenodd" d="M8.18507 13.7054C7.01979 13.5751 5.81354 13.5751 4.64826 13.7054C4.36511 13.737 4.14181 13.9612 4.10996 14.2335C3.97081 15.4233 3.97081 16.6253 4.10996 17.815C4.14181 18.0873 4.36511 18.3116 4.64826 18.3432C5.81354 18.4734 7.01979 18.4734 8.18507 18.3432C8.46822 18.3116 8.69152 18.0873 8.72337 17.815C8.86252 16.6253 8.86252 15.4233 8.72337 14.2335C8.69152 13.9612 8.46822 13.737 8.18507 13.7054ZM4.49553 12.3389C5.76232 12.1973 7.07101 12.1973 8.3378 12.3389C9.24607 12.4404 9.98164 13.1554 10.0891 14.0738C10.2406 15.3697 10.2406 16.6789 10.0891 17.9748C9.98164 18.8932 9.24607 19.6082 8.3378 19.7097C7.07101 19.8513 5.76232 19.8513 4.49553 19.7097C3.58726 19.6082 2.85169 18.8932 2.74427 17.9748C2.5927 16.6789 2.5927 15.3697 2.74427 14.0738C2.85169 13.1554 3.58726 12.4404 4.49553 12.3389Z" fill="white"/>
<path fill-rule="evenodd" clip-rule="evenodd" d="M17.3517 4.53872C16.1865 4.40848 14.9802 4.40848 13.8149 4.53872C13.5318 4.57036 13.3085 4.79457 13.2766 5.06687C13.1375 6.25665 13.1375 7.4586 13.2766 8.64838C13.3085 8.92068 13.5318 9.14489 13.8149 9.17653C14.9802 9.30677 16.1865 9.30677 17.3517 9.17653C17.6349 9.14489 17.8582 8.92068 17.89 8.64838C18.0292 7.4586 18.0292 6.25665 17.89 5.06687C17.8582 4.79457 17.6349 4.57036 17.3517 4.53872ZM13.6622 3.17223C14.929 3.03064 16.2377 3.03064 17.5045 3.17223C18.4127 3.27374 19.1483 3.98873 19.2557 4.90714C19.4073 6.20305 19.4073 7.5122 19.2557 8.80811C19.1483 9.72652 18.4127 10.4415 17.5045 10.543C16.2377 10.6846 14.929 10.6846 13.6622 10.543C12.7539 10.4415 12.0184 9.72652 11.9109 8.80811C11.7594 7.5122 11.7594 6.20305 11.9109 4.90714C12.0184 3.98873 12.7539 3.27374 13.6622 3.17223Z" fill="white"/>
<path fill-rule="evenodd" clip-rule="evenodd" d="M17.3517 13.7054C16.1865 13.5751 14.9802 13.5751 13.8149 13.7054C13.5318 13.737 13.3085 13.9612 13.2766 14.2335C13.1375 15.4233 13.1375 16.6253 13.2766 17.815C13.3085 18.0873 13.5318 18.3116 13.8149 18.3432C14.9802 18.4734 16.1865 18.4734 17.3517 18.3432C17.6349 18.3116 17.8582 18.0873 17.89 17.815C18.0292 16.6253 18.0292 15.4233 17.89 14.2335C17.8582 13.9612 17.6349 13.737 17.3517 13.7054ZM13.6622 12.3389C14.929 12.1973 16.2377 12.1973 17.5045 12.3389C18.4127 12.4404 19.1483 13.1554 19.2557 14.0738C19.4073 15.3697 19.4073 16.6789 19.2557 17.9748C19.1483 18.8932 18.4127 19.6082 17.5045 19.7097C16.2377 19.8513 14.929 19.8513 13.6622 19.7097C12.7539 19.6082 12.0184 18.8932 11.9109 17.9748C11.7594 16.6789 11.7594 15.3697 11.9109 14.0738C12.0184 13.1554 12.7539 12.4404 13.6622 12.3389Z" fill="white"/>
</svg>
