<svg width="22" height="23" viewBox="0 0 22 23" fill="none" xmlns="http://www.w3.org/2000/svg">
<path fill-rule="evenodd" clip-rule="evenodd" d="M6.64582 6.52114V5.44884C6.64582 4.65478 7.22675 3.98021 8.01202 3.86242L9.13027 3.69468C10.3698 3.50875 11.6302 3.50875 12.8697 3.69468L13.9879 3.86242C14.7732 3.98021 15.3541 4.65479 15.3541 5.44884V6.52114L16.9253 6.64796C18.1284 6.74507 19.1097 7.65087 19.3026 8.84228C19.7291 11.4754 19.7291 14.1601 19.3026 16.7932C19.1097 17.9846 18.1284 18.8904 16.9253 18.9875L15.2094 19.126C12.4077 19.3522 9.59227 19.3522 6.79053 19.126L5.07461 18.9875C3.87159 18.8904 2.89026 17.9846 2.69732 16.7932C2.2709 14.1601 2.2709 11.4754 2.69732 8.84228C2.89026 7.65087 3.87159 6.74507 5.07461 6.64796L6.64582 6.52114ZM9.33424 5.05447C10.4386 4.88883 11.5614 4.88883 12.6657 5.05447L13.784 5.22221C13.8962 5.23904 13.9791 5.33541 13.9791 5.44884V6.42473C11.9947 6.31155 10.0053 6.31154 8.02082 6.42473V5.44884C8.02082 5.33541 8.10381 5.23904 8.21599 5.22221L9.33424 5.05447ZM6.90116 7.88C9.62927 7.65979 12.3707 7.65979 15.0988 7.88L16.8147 8.01851C17.3869 8.06469 17.8536 8.49547 17.9453 9.06209C18.0025 9.41494 18.0515 9.76877 18.0924 10.1233C13.6213 12.3249 8.37867 12.3249 3.90753 10.1233C3.94846 9.76877 3.99749 9.41494 4.05464 9.06209C4.1464 8.49547 4.6131 8.06469 5.18524 8.01851L6.90116 7.88ZM3.7848 11.5863C8.36758 13.6706 13.6324 13.6706 18.2152 11.5863C18.3025 13.2512 18.2126 14.923 17.9453 16.5734C17.8536 17.14 17.3869 17.5708 16.8147 17.617L15.0988 17.7555C12.3707 17.9757 9.62927 17.9757 6.90116 17.7555L5.18524 17.617C4.6131 17.5708 4.1464 17.14 4.05464 16.5734C3.78736 14.923 3.69742 13.2512 3.7848 11.5863Z" fill="white"/>
</svg>
