<svg width="22" height="23" viewBox="0 0 22 23" fill="none" xmlns="http://www.w3.org/2000/svg">
<path fill-rule="evenodd" clip-rule="evenodd" d="M7.10417 7.31588C7.10417 5.16427 8.84839 3.42004 11 3.42004C13.1516 3.42004 14.8958 5.16427 14.8958 7.31588C14.8958 9.46749 13.1516 11.2117 11 11.2117C8.84839 11.2117 7.10417 9.46749 7.10417 7.31588ZM11 4.79504C9.60778 4.79504 8.47917 5.92366 8.47917 7.31588C8.47917 8.7081 9.60778 9.83671 11 9.83671C12.3922 9.83671 13.5208 8.7081 13.5208 7.31588C13.5208 5.92366 12.3922 4.79504 11 4.79504Z" fill="white"/>
<path fill-rule="evenodd" clip-rule="evenodd" d="M7.33333 13.9617C6.19424 13.9617 5.27083 14.8851 5.27083 16.0242V17.1135C5.27083 17.1301 5.28285 17.1442 5.29922 17.1469C9.07475 17.7633 12.9253 17.7633 16.7008 17.1469C16.7171 17.1442 16.7292 17.1301 16.7292 17.1135V16.0242C16.7292 14.8851 15.8058 13.9617 14.6667 13.9617H14.3542C14.33 13.9617 14.306 13.9655 14.2831 13.973L13.4897 14.2321C11.8719 14.7603 10.1281 14.7603 8.51032 14.2321L7.71693 13.973C7.69396 13.9655 7.66995 13.9617 7.6458 13.9617H7.33333ZM3.89583 16.0242C3.89583 14.1257 5.43485 12.5867 7.33333 12.5867H7.6458C7.81491 12.5867 7.98297 12.6135 8.14373 12.6659L8.93712 12.925C10.2775 13.3627 11.7224 13.3627 13.0629 12.925L13.8563 12.6659C14.017 12.6135 14.1851 12.5867 14.3542 12.5867H14.6667C16.5651 12.5867 18.1042 14.1257 18.1042 16.0242V17.1135C18.1042 17.8039 17.6038 18.3926 16.9223 18.5039C13.0001 19.1443 8.99992 19.1443 5.07766 18.5039C4.39623 18.3926 3.89583 17.8039 3.89583 17.1135V16.0242Z" fill="white"/>
</svg>
