<svg width="22" height="23" viewBox="0 0 22 23" fill="none" xmlns="http://www.w3.org/2000/svg">
<path d="M9.62499 15.1076C9.62499 14.3482 10.2406 13.7326 11 13.7326C11.7594 13.7326 12.375 14.3482 12.375 15.1076C12.375 15.867 11.7594 16.4826 11 16.4826C10.2406 16.4826 9.62499 15.867 9.62499 15.1076Z" fill="white"/>
<path fill-rule="evenodd" clip-rule="evenodd" d="M6.98651 10.155L6.69735 7.55263C6.66028 7.21899 6.66028 6.88226 6.69735 6.54861L6.71822 6.36079C6.93959 4.36852 8.50581 2.79216 10.4966 2.55795C10.831 2.51861 11.1689 2.51861 11.5033 2.55795C13.4941 2.79216 15.0604 4.36852 15.2817 6.36079L15.3026 6.54861C15.3397 6.88226 15.3397 7.21899 15.3026 7.55263L15.0134 10.155L15.6428 10.2053C16.6353 10.2845 17.4458 11.0306 17.6066 12.0131C17.9422 14.0625 17.9422 16.1528 17.6066 18.2021C17.4458 19.1847 16.6353 19.9308 15.6428 20.01L14.2714 20.1195C12.0939 20.2933 9.9061 20.2933 7.72867 20.1195L6.35722 20.01C5.36472 19.9308 4.55429 19.1847 4.3934 18.2021C4.05783 16.1528 4.05783 14.0625 4.3934 12.0131C4.55429 11.0306 5.36472 10.2845 6.35722 10.2053L6.98651 10.155ZM10.6573 3.92353C10.885 3.89675 11.115 3.89675 11.3427 3.92353C12.6981 4.08299 13.7644 5.15623 13.9151 6.51263L13.936 6.70046C13.9619 6.93318 13.9619 7.16806 13.936 7.40079L13.6416 10.0504C11.8823 9.93708 10.1176 9.93709 8.35834 10.0504L8.06394 7.40079C8.03809 7.16806 8.03809 6.93318 8.06394 6.70046L8.08481 6.51263C8.23553 5.15623 9.30186 4.08299 10.6573 3.92353ZM14.1619 11.4664C12.0573 11.2984 9.94269 11.2984 7.83809 11.4664L6.46664 11.5759C6.10462 11.6048 5.80901 11.8769 5.75033 12.2353C5.43886 14.1375 5.43886 16.0777 5.75033 17.9799C5.80901 18.3383 6.10462 18.6105 6.46664 18.6394L7.83809 18.7489C9.94269 18.9169 12.0573 18.9169 14.1619 18.7489L15.5334 18.6394C15.8954 18.6105 16.191 18.3383 16.2497 17.9799C16.5612 16.0777 16.5612 14.1375 16.2497 12.2353C16.191 11.8769 15.8954 11.6048 15.5334 11.5759L14.1619 11.4664Z" fill="white"/>
</svg>
