<svg width="48" height="48" viewBox="0 0 48 48" fill="none" xmlns="http://www.w3.org/2000/svg">
<g clip-path="url(#clip0_248_1164)">
<path d="M20.3315 32.1679H28.2219C29.3069 32.1679 30.1945 31.2802 30.1945 30.1953V20.3323H33.331C35.0866 20.3323 35.9743 18.2019 34.7315 16.9591L25.6773 7.90487C24.908 7.13555 23.6652 7.13555 22.8959 7.90487L13.8417 16.9591C12.5989 18.2019 13.4669 20.3323 15.2225 20.3323H18.3589V30.1953C18.3589 31.2802 19.2466 32.1679 20.3315 32.1679ZM12.4411 36.1131H36.1123C37.1973 36.1131 38.0849 37.0008 38.0849 38.0857C38.0849 39.1706 37.1973 40.0583 36.1123 40.0583H12.4411C11.3562 40.0583 10.4685 39.1706 10.4685 38.0857C10.4685 37.0008 11.3562 36.1131 12.4411 36.1131Z" fill="#4318FF"/>
</g>
<defs>
<clipPath id="clip0_248_1164">
<rect width="47.3425" height="47.3425" fill="white" transform="translate(0.605469 0.606323)"/>
</clipPath>
</defs>
</svg>
