<svg width="17" height="16" viewBox="0 0 17 16" fill="none" xmlns="http://www.w3.org/2000/svg">
<g clip-path="url(#clip0_40_5540)">
<path d="M6.44599 6.7594C7.87783 6.7594 9.03858 5.59866 9.03858 4.16681C9.03858 2.73496 7.87783 1.57422 6.44599 1.57422C5.01414 1.57422 3.85339 2.73496 3.85339 4.16681C3.85339 5.59866 5.01414 6.7594 6.44599 6.7594Z" stroke="#2F70F2" stroke-width="1.16667"/>
<path d="M10.3339 6.11155C10.8496 6.11155 11.3441 5.90669 11.7088 5.54203C12.0734 5.17738 12.2783 4.6828 12.2783 4.1671C12.2783 3.6514 12.0734 3.15683 11.7088 2.79217C11.3441 2.42752 10.8496 2.22266 10.3339 2.22266" stroke="#2F70F2" stroke-width="1.16667" stroke-linecap="round"/>
<path d="M6.445 13.8893C8.95073 13.8893 10.982 12.7285 10.982 11.2967C10.982 9.86484 8.95073 8.7041 6.445 8.7041C3.93926 8.7041 1.90796 9.86484 1.90796 11.2967C1.90796 12.7285 3.93926 13.8893 6.445 13.8893Z" stroke="#2F70F2" stroke-width="1.16667"/>
<path d="M12.2782 9.35205C13.4151 9.60159 14.2226 10.2329 14.2226 10.9724C14.2226 11.64 13.5654 12.2188 12.6023 12.5085" stroke="#2F70F2" stroke-width="1.16667" stroke-linecap="round"/>
</g>
<defs>
<clipPath id="clip0_40_5540">
<rect width="15.5556" height="15.5556" fill="white" transform="translate(0.610352 0.277832)"/>
</clipPath>
</defs>
</svg>
